<?xml version="1.0" encoding="iso-8859-1"?>
<!-- Generator: Adobe Illustrator 16.0.0, SVG Export Plug-In . SVG Version: 6.00 Build 0)  -->
<!DOCTYPE svg PUBLIC "-//W3C//DTD SVG 1.1//EN" "http://www.w3.org/Graphics/SVG/1.1/DTD/svg11.dtd">
<svg xmlns="http://www.w3.org/2000/svg" xmlns:xlink="http://www.w3.org/1999/xlink" version="1.1" id="Capa_1" x="0px" y="0px" width="512px" height="512px" viewBox="0 0 98.057 98.057" style="enable-background:new 0 0 98.057 98.057;" xml:space="preserve">
<g>
	<g>
		<g>
			<path d="M30.439,36.61c3.506,9.07,10.104,15.029,18.587,15.029c8.103,0,15.125-5.736,18.59-15.029     c3.64-0.338,5.546-3.852,6.256-7.995c0.846-4.952-0.932-7.368-4.063-7.908C68.743,9.077,65.399,0,49.026,0     c-16.47,0-19.72,9.077-20.786,20.707c-3.132,0.541-4.91,2.956-4.063,7.908C24.896,32.807,26.87,36.298,30.439,36.61z      M52.863,17.466c1.03,2.062,3.974,6.095,11.642,7.906c-0.723,11.938-7.008,20.375-15.478,20.375     c-7.977,0-13.56-7.346-15.138-17.465C44.793,27.532,51.779,18.896,52.863,17.466z" fill="#b5b5b5"/>
		</g>
		<g>
			<path d="M66.168,45.728c-0.004-0.004-0.009-0.007-0.018-0.012L53.639,68.452l-1.205-4.312c1.131-0.979,1.862-2.408,1.862-4.024     c0-2.953-2.394-5.345-5.345-5.345c-2.952,0-5.191,2.392-5.191,5.345c0,1.616,0.732,3.044,1.861,4.024l-1.274,4.312l-12.46-22.724     c-8.034,4.766-16.267,15.713-17.411,37.938c-0.204,3.928,2.434,7.295,5.892,7.523c0.124,0.009,6.768,0.348,6.768,0.348     c4.133,4.689,12.635,6.52,22.04,6.52c9.98,0,17.806-2.189,21.742-6.52c0,0,6.642-0.338,6.766-0.348     c3.458-0.229,6.099-3.596,5.896-7.521C82.439,61.592,74.153,50.549,66.168,45.728z" fill="#b5b5b5"/>
		</g>
	</g>
</g>
<g>
</g>
<g>
</g>
<g>
</g>
<g>
</g>
<g>
</g>
<g>
</g>
<g>
</g>
<g>
</g>
<g>
</g>
<g>
</g>
<g>
</g>
<g>
</g>
<g>
</g>
<g>
</g>
<g>
</g>
</svg>
